<svg width="19" height="19" viewBox="0 0 19 19" fill="none" xmlns="http://www.w3.org/2000/svg">
<path d="M5.5415 6.33333C5.5415 4.14721 7.31371 2.375 9.49984 2.375C11.686 2.375 13.4582 4.14721 13.4582 6.33333C13.4582 8.51946 11.686 10.2917 9.49984 10.2917C7.31371 10.2917 5.5415 8.51946 5.5415 6.33333ZM9.49984 8.70833C10.8115 8.70833 11.8748 7.64501 11.8748 6.33333C11.8748 5.02166 10.8115 3.95833 9.49984 3.95833C8.18816 3.95833 7.12484 5.02166 7.12484 6.33333C7.12484 7.64501 8.18816 8.70833 9.49984 8.70833Z" fill="#7E7E7E"/>
<path d="M5.02149 12.9383C3.83376 14.1261 3.1665 15.737 3.1665 17.4167H4.74984C4.74984 16.1569 5.25028 14.9487 6.14108 14.0579C7.03188 13.1671 8.24006 12.6667 9.49984 12.6667C10.7596 12.6667 11.9678 13.1671 12.8586 14.0579C13.7494 14.9487 14.2498 16.1569 14.2498 17.4167H15.8332C15.8332 15.737 15.1659 14.1261 13.9782 12.9383C12.7905 11.7506 11.1795 11.0833 9.49984 11.0833C7.82013 11.0833 6.20922 11.7506 5.02149 12.9383Z" fill="#7E7E7E"/>
</svg>
