<svg width="21" height="20" viewBox="0 0 21 20" fill="none" xmlns="http://www.w3.org/2000/svg">
<path d="M18.8534 2.6066C17.5753 1.05431 15.799 0.200806 13.8509 0.200806C12.625 0.200806 11.4419 0.511259 10.407 1.10124C9.37214 0.511259 8.18899 0.200806 6.96316 0.200806C5.01505 0.200806 3.23872 1.05537 1.96061 2.6066C0.564074 4.30186 -0.016307 6.61697 0.410441 8.80085C1.4293 14.0242 6.7839 17.6932 9.03927 19.0289C9.46175 19.2786 9.93332 19.4034 10.407 19.4034C10.8807 19.4034 11.3533 19.2786 11.7747 19.0289C14.029 17.6943 19.3836 14.0253 20.4025 8.80085C20.8292 6.61697 20.2499 4.30186 18.8534 2.6066ZM19.3559 8.59599C18.4203 13.3958 13.3622 16.8482 11.2306 18.1103C10.7217 18.4112 10.0912 18.4112 9.58231 18.1103C7.4507 16.8482 2.39374 13.3958 1.45703 8.59599C1.09109 6.72257 1.5872 4.73609 2.78316 3.28408C3.85536 1.98249 5.33937 1.2666 6.96208 1.2666C8.0983 1.2666 9.18971 1.57919 10.1179 2.17237C10.2929 2.28333 10.5169 2.28333 10.6919 2.17237C11.62 1.57919 12.7115 1.2666 13.8477 1.2666C15.4704 1.2666 16.9555 1.98249 18.0266 3.28408C19.2258 4.73715 19.7219 6.72257 19.3559 8.59599Z" fill="white"/>
</svg>
