<svg width="16" height="16" viewBox="0 0 16 16" fill="none" xmlns="http://www.w3.org/2000/svg">
<path d="M5.74013 11.5126C7.12184 11.5126 8.42617 11.0234 9.46428 10.1326L14.5121 15.1934C14.6057 15.2871 14.7289 15.334 14.8513 15.334C14.9735 15.334 15.0958 15.2871 15.1896 15.1943C15.3769 15.007 15.3778 14.7042 15.1905 14.5169L10.1382 9.45278C12.0299 7.1942 11.9187 3.81173 9.80075 1.68778C8.7167 0.599232 7.27428 0 5.73983 0C4.20552 0 2.76326 0.599232 1.67891 1.68693C-0.559636 3.93067 -0.559636 7.58223 1.67891 9.82661C2.76311 10.9142 4.20538 11.5126 5.73983 11.5126L5.74013 11.5126ZM2.35758 2.36335C3.26127 1.45701 4.46253 0.958251 5.74013 0.958251C7.01773 0.958251 8.21898 1.45701 9.12268 2.36335C10.9892 4.23408 10.9892 7.27845 9.12268 9.14927C8.21898 10.0556 7.01773 10.5544 5.74013 10.5544C4.46253 10.5544 3.26127 10.0556 2.35758 9.14927C0.491188 7.27853 0.491188 4.23416 2.35758 2.36335Z" fill="white"/>
</svg>
