<svg width="21" height="16" viewBox="0 0 21 16" fill="none" xmlns="http://www.w3.org/2000/svg">
<path d="M20.2081 7.99071C20.2081 9.17729 19.7632 10.2897 18.9225 11.1304C18.7989 11.2787 18.6011 11.3282 18.4281 11.3282C18.255 11.3282 18.0821 11.254 17.9338 11.1304C17.6618 10.8584 17.6618 10.4382 17.9338 10.1662C18.5023 9.57288 18.8237 8.80651 18.8237 7.99071C18.8237 6.28488 17.4394 4.87585 15.7089 4.87585H8.06995L9.82526 6.63116C10.0972 6.9031 10.0972 7.34799 9.82526 7.59529C9.70162 7.71894 9.50383 7.79309 9.33088 7.79309C9.15774 7.79309 8.98479 7.71894 8.83649 7.59529L5.91928 4.70276C5.89462 4.6781 5.86979 4.6286 5.84513 4.60394C5.82047 4.57928 5.82047 4.55445 5.82047 4.55445C5.82047 4.52979 5.79581 4.50496 5.79581 4.50496C5.79581 4.4803 5.77115 4.45547 5.77115 4.43081C5.77115 4.40615 5.77115 4.40615 5.74649 4.38132C5.72183 4.28251 5.72183 4.20819 5.74649 4.10938V4.08472C5.74649 4.06006 5.77115 4.01056 5.77115 3.9859C5.77115 3.96125 5.79581 3.96125 5.79581 3.93641C5.82047 3.91175 5.82047 3.88692 5.8453 3.86226C5.8453 3.8376 5.86996 3.8376 5.89479 3.81277L8.88617 0.82139C9.15812 0.549446 9.603 0.549446 9.85031 0.82139C10.1223 1.09333 10.1223 1.53822 9.85031 1.78553L8.095 3.54084H15.7339C18.2059 3.51618 20.2085 5.51859 20.2085 7.99069L20.2081 7.99071ZM14.5963 12.0697C14.5963 12.045 14.621 12.045 14.621 12.0202C14.6456 11.9955 14.6456 11.946 14.6456 11.9213V11.8967C14.6703 11.7979 14.6703 11.7236 14.6456 11.6247C14.6456 11.6001 14.6456 11.6001 14.621 11.5753C14.621 11.5506 14.5963 11.5258 14.5963 11.5011C14.5963 11.4764 14.5717 11.4516 14.5468 11.427C14.5468 11.4023 14.5222 11.4023 14.5222 11.3775C14.4975 11.328 14.4727 11.3033 14.4234 11.2787L11.5308 8.36143C11.2589 8.08949 10.814 8.08949 10.5667 8.36143C10.2947 8.63338 10.2947 9.07827 10.5667 9.32557L12.322 11.0809H4.68307C2.97725 11.0809 1.56822 9.69652 1.56822 7.96602C1.56822 7.15022 1.88965 6.38385 2.45819 5.79049C2.73013 5.51855 2.73013 5.07366 2.45819 4.82636C2.18625 4.55441 1.74136 4.55441 1.49405 4.82636C0.65357 5.66684 0.208496 6.77926 0.208496 7.96602C0.208496 10.4382 2.21089 12.4653 4.7078 12.4653H12.3467L10.5914 14.2206C10.3195 14.4926 10.3195 14.9375 10.5914 15.1848C10.715 15.3084 10.9128 15.3826 11.0858 15.3826C11.2589 15.3826 11.4319 15.3084 11.5802 15.1848L14.5221 12.2429C14.5467 12.2182 14.5467 12.1934 14.5716 12.1934C14.5716 12.1687 14.5962 12.1687 14.5962 12.1439C14.5716 12.1437 14.5962 12.1191 14.5962 12.0696L14.5963 12.0697Z" fill="white"/>
</svg>
