<svg width="23" height="19" viewBox="0 0 23 19" fill="none" xmlns="http://www.w3.org/2000/svg">
<path d="M21.596 2.39811H5.60866L4.99382 0.338205C4.93227 0.153769 4.74783 0 4.5634 0H1.27359C1.0276 0 0.8125 0.215319 0.8125 0.461086C0.8125 0.707072 1.02782 0.922172 1.27359 0.922172H4.22521L4.84005 2.95139V2.98206L7.85299 12.6974L6.50016 15.1262C6.40794 15.2799 6.40794 15.4337 6.50016 15.5873C6.59238 15.741 6.74615 15.8026 6.89991 15.8026H7.66853C7.45322 16.1408 7.33033 16.5097 7.33033 16.9401C7.33033 18.0776 8.25273 19 9.39024 19C10.5277 19 11.4501 18.0776 11.4501 16.9401C11.4501 16.5097 11.3273 16.1408 11.1119 15.8026H17.4761C17.2608 16.1408 17.1379 16.5097 17.1379 16.9401C17.1379 18.0776 18.0603 19 19.1978 19C20.3353 19 21.2577 18.0776 21.2577 16.9401C21.2577 15.8026 20.3353 14.8802 19.1978 14.8802L7.6685 14.8804L8.62154 13.1587L19.9357 12.0212C20.151 11.9906 20.3045 11.8368 20.3354 11.6524L22.0571 2.92081C22.0877 2.79792 22.0571 2.64415 21.9649 2.55194C21.8726 2.45972 21.7189 2.39817 21.596 2.39817L21.596 2.39811ZM10.4971 16.9404C10.4971 17.5553 9.97446 18.078 9.35959 18.078C8.74475 18.078 8.22209 17.5553 8.22209 16.9404C8.22209 16.3256 8.74472 15.8029 9.35959 15.8029C9.97443 15.8029 10.4971 16.3256 10.4971 16.9404ZM20.274 16.9404C20.274 17.5553 19.7513 18.078 19.1365 18.078C18.5216 18.078 17.999 17.5553 17.999 16.9404C17.999 16.3256 18.5216 15.8029 19.1365 15.8029C19.782 15.8029 20.274 16.3256 20.274 16.9404ZM19.5054 11.1604L8.68315 12.2366L5.91622 3.28982H21.0427L19.5054 11.1604Z" fill="white"/>
</svg>
